<svg width="16" height="16" viewBox="0 0 16 16" fill="none" xmlns="http://www.w3.org/2000/svg">
<path d="M2.1 0H2.16H5.1C5.376 0 5.6112 0 5.82 0.048C6.14317 0.125529 6.43856 0.291013 6.67345 0.526117C6.90834 0.76122 7.07356 1.05676 7.1508 1.38C7.2 1.5888 7.2 1.8252 7.2 2.1V5.1V5.10001C7.2 5.37601 7.2 5.6112 7.152 5.82C7.07447 6.14317 6.90899 6.43856 6.67388 6.67345C6.43878 6.90834 6.14324 7.07356 5.82 7.1508C5.6112 7.2 5.3748 7.2 5.1 7.2H2.1C1.824 7.2 1.5888 7.2 1.38 7.152C1.05683 7.07447 0.761439 6.90899 0.526547 6.67388C0.291656 6.43878 0.126438 6.14324 0.0492001 5.82C0 5.6112 0 5.3748 0 5.1V2.1C0 1.824 0 1.5888 0.0479994 1.38C0.125529 1.05683 0.291013 0.761439 0.526116 0.526547C0.76122 0.291656 1.05676 0.126438 1.38 0.0492C1.5888 0 1.8252 0 2.1 0Z" fill="#766E66"/>
<path d="M10.8 0H10.86H13.8C14.076 0 14.3112 0 14.52 0.048C14.8431 0.125529 15.1385 0.291013 15.3734 0.526117C15.6083 0.76122 15.7735 1.05676 15.8508 1.38C15.9 1.5888 15.9 1.8252 15.9 2.1V5.1V5.10001C15.9 5.37601 15.9 5.6112 15.852 5.82C15.7744 6.14317 15.6089 6.43856 15.3738 6.67345C15.1387 6.90834 14.8432 7.07356 14.52 7.1508C14.3112 7.2 14.0748 7.2 13.8 7.2H10.8C10.524 7.2 10.2888 7.2 10.08 7.152C9.75678 7.07447 9.46139 6.90899 9.2265 6.67388C8.99161 6.43878 8.82639 6.14324 8.74915 5.82C8.69995 5.6112 8.69995 5.3748 8.69995 5.1V2.1C8.69995 1.824 8.69995 1.5888 8.74795 1.38C8.82548 1.05683 8.99096 0.761439 9.22607 0.526547C9.46117 0.291656 9.75671 0.126438 10.08 0.0492C10.2888 0 10.5252 0 10.8 0Z" fill="#C9C5C2"/>
<path d="M2.1 8.70001H2.16H5.1C5.376 8.70001 5.6112 8.70001 5.82 8.74801C6.14317 8.82554 6.43856 8.99103 6.67345 9.22613C6.90834 9.46123 7.07356 9.75678 7.1508 10.08C7.2 10.2888 7.2 10.5252 7.2 10.8V13.8V13.8C7.2 14.076 7.2 14.3112 7.152 14.52C7.07447 14.8432 6.90899 15.1386 6.67388 15.3735C6.43878 15.6084 6.14324 15.7736 5.82 15.8508C5.6112 15.9 5.3748 15.9 5.1 15.9H2.1C1.824 15.9 1.5888 15.9 1.38 15.852C1.05683 15.7745 0.761439 15.609 0.526547 15.3739C0.291656 15.1388 0.126438 14.8432 0.0492001 14.52C0 14.3112 0 14.0748 0 13.8V10.8C0 10.524 0 10.2888 0.0479994 10.08C0.125529 9.75685 0.291013 9.46145 0.526116 9.22656C0.76122 8.99167 1.05676 8.82645 1.38 8.74921C1.5888 8.70001 1.8252 8.70001 2.1 8.70001Z" fill="#766E66"/>
<path d="M10.8 8.70001H10.86H13.8C14.076 8.70001 14.3112 8.70001 14.52 8.74801C14.8431 8.82554 15.1385 8.99103 15.3734 9.22613C15.6083 9.46123 15.7735 9.75678 15.8508 10.08C15.9 10.2888 15.9 10.5252 15.9 10.8V13.8V13.8C15.9 14.076 15.9 14.3112 15.852 14.52C15.7744 14.8432 15.6089 15.1386 15.3738 15.3735C15.1387 15.6084 14.8432 15.7736 14.52 15.8508C14.3112 15.9 14.0748 15.9 13.8 15.9H10.8C10.524 15.9 10.2888 15.9 10.08 15.852C9.75678 15.7745 9.46139 15.609 9.2265 15.3739C8.99161 15.1388 8.82639 14.8432 8.74915 14.52C8.69995 14.3112 8.69995 14.0748 8.69995 13.8V10.8C8.69995 10.524 8.69995 10.2888 8.74795 10.08C8.82548 9.75685 8.99096 9.46145 9.22607 9.22656C9.46117 8.99167 9.75671 8.82645 10.08 8.74921C10.2888 8.70001 10.5252 8.70001 10.8 8.70001Z" fill="#766E66"/>
</svg>
